<mxfile host="app.diagrams.net" modified="2022-03-30T12:56:10.504Z" agent="5.0 (X11; Linux x86_64) AppleWebKit/537.36 (KHTML, like Gecko) Chrome/100.0.4896.60 Safari/537.36" etag="CevZtqdilBCn_g9Sk1NP" version="17.1.2" type="github">
  <diagram id="92ikUa6rzXuhu6g8R1mI" name="Страница 1">
    <mxGraphModel dx="2155" dy="2402" grid="1" gridSize="10" guides="1" tooltips="1" connect="1" arrows="1" fold="1" page="1" pageScale="1" pageWidth="827" pageHeight="1169" math="0" shadow="0">
      <root>
        <mxCell id="0" />
        <mxCell id="1" parent="0" />
        <mxCell id="5MEwGUwgPGxXNnlHgzlO-14" style="edgeStyle=orthogonalEdgeStyle;rounded=0;orthogonalLoop=1;jettySize=auto;html=1;" edge="1" parent="1" source="iOkIdsyl_SsvX38HtbD8-1" target="iOkIdsyl_SsvX38HtbD8-33">
          <mxGeometry relative="1" as="geometry" />
        </mxCell>
        <mxCell id="iOkIdsyl_SsvX38HtbD8-1" value="MyTranslator" style="rounded=0;whiteSpace=wrap;html=1;fontFamily=Times New Roman;fontStyle=1;fontSize=20;verticalAlign=top;fillColor=#E6E6E6;" parent="1" vertex="1">
          <mxGeometry x="970" y="75" width="1850" height="455" as="geometry" />
        </mxCell>
        <mxCell id="5MEwGUwgPGxXNnlHgzlO-15" style="edgeStyle=orthogonalEdgeStyle;rounded=0;orthogonalLoop=1;jettySize=auto;html=1;entryX=0.75;entryY=1;entryDx=0;entryDy=0;" edge="1" parent="1" source="iOkIdsyl_SsvX38HtbD8-2" target="iOkIdsyl_SsvX38HtbD8-33">
          <mxGeometry relative="1" as="geometry">
            <Array as="points">
              <mxPoint x="3130" />
              <mxPoint x="2461" />
            </Array>
          </mxGeometry>
        </mxCell>
        <mxCell id="iOkIdsyl_SsvX38HtbD8-2" value="MyTimer" style="rounded=0;whiteSpace=wrap;html=1;fontFamily=Times New Roman;fontStyle=1;fontSize=20;verticalAlign=top;fillColor=#E6E6E6;" parent="1" vertex="1">
          <mxGeometry x="2860" y="325" width="540" height="205" as="geometry" />
        </mxCell>
        <mxCell id="iOkIdsyl_SsvX38HtbD8-3" value="Domain" style="rounded=0;whiteSpace=wrap;html=1;fontFamily=Times New Roman;fontStyle=1;fontSize=20;verticalAlign=top;fillColor=#E6E6E6;" parent="1" vertex="1">
          <mxGeometry x="400" y="705" width="1940" height="350" as="geometry" />
        </mxCell>
        <mxCell id="5MEwGUwgPGxXNnlHgzlO-7" style="edgeStyle=orthogonalEdgeStyle;rounded=0;orthogonalLoop=1;jettySize=auto;html=1;exitX=0.75;exitY=1;exitDx=0;exitDy=0;entryX=0.5;entryY=1;entryDx=0;entryDy=0;" edge="1" parent="1" source="iOkIdsyl_SsvX38HtbD8-19" target="5MEwGUwgPGxXNnlHgzlO-3">
          <mxGeometry relative="1" as="geometry" />
        </mxCell>
        <mxCell id="5MEwGUwgPGxXNnlHgzlO-8" style="edgeStyle=orthogonalEdgeStyle;rounded=0;orthogonalLoop=1;jettySize=auto;html=1;exitX=0.75;exitY=1;exitDx=0;exitDy=0;entryX=0.25;entryY=1;entryDx=0;entryDy=0;" edge="1" parent="1" source="iOkIdsyl_SsvX38HtbD8-19" target="iOkIdsyl_SsvX38HtbD8-26">
          <mxGeometry relative="1" as="geometry" />
        </mxCell>
        <mxCell id="iOkIdsyl_SsvX38HtbD8-19" value="TranslatorFragment" style="rounded=1;whiteSpace=wrap;html=1;fontFamily=Times New Roman;fontSize=20;verticalAlign=top;" parent="1" vertex="1">
          <mxGeometry x="1010" y="170" width="650" height="210" as="geometry" />
        </mxCell>
        <mxCell id="iOkIdsyl_SsvX38HtbD8-20" value="&lt;div style=&quot;&quot;&gt;TranslatorAdapter&lt;/div&gt;" style="ellipse;whiteSpace=wrap;html=1;fontFamily=Times New Roman;fontSize=20;fillColor=#dae8fc;strokeColor=#6c8ebf;labelBackgroundColor=none;fontColor=default;" parent="1" vertex="1">
          <mxGeometry x="1430" y="230" width="190" height="80" as="geometry" />
        </mxCell>
        <mxCell id="iOkIdsyl_SsvX38HtbD8-21" value="&lt;div style=&quot;&quot;&gt;TranslatorViewModel&lt;/div&gt;" style="ellipse;whiteSpace=wrap;html=1;fontFamily=Times New Roman;fontSize=20;fillColor=#dae8fc;strokeColor=#6c8ebf;labelBackgroundColor=none;fontColor=default;" parent="1" vertex="1">
          <mxGeometry x="1230" y="225" width="190" height="95" as="geometry" />
        </mxCell>
        <mxCell id="iOkIdsyl_SsvX38HtbD8-22" value="&lt;div style=&quot;&quot;&gt;TranslatorFragment&lt;/div&gt;" style="ellipse;whiteSpace=wrap;html=1;fontFamily=Times New Roman;fontSize=20;fillColor=#dae8fc;strokeColor=#6c8ebf;labelBackgroundColor=none;fontColor=default;" parent="1" vertex="1">
          <mxGeometry x="1050" y="230" width="170" height="80" as="geometry" />
        </mxCell>
        <mxCell id="iOkIdsyl_SsvX38HtbD8-26" value="FavoriteFragment" style="rounded=1;whiteSpace=wrap;html=1;fontFamily=Times New Roman;fontSize=20;verticalAlign=top;" parent="1" vertex="1">
          <mxGeometry x="1670" y="165" width="650" height="210" as="geometry" />
        </mxCell>
        <mxCell id="iOkIdsyl_SsvX38HtbD8-23" value="&lt;div style=&quot;&quot;&gt;FavoriteAdapter&lt;/div&gt;" style="ellipse;whiteSpace=wrap;html=1;fontFamily=Times New Roman;fontSize=20;fillColor=#dae8fc;strokeColor=#6c8ebf;labelBackgroundColor=none;fontColor=default;verticalAlign=middle;" parent="1" vertex="1">
          <mxGeometry x="2090" y="232.5" width="190" height="80" as="geometry" />
        </mxCell>
        <mxCell id="iOkIdsyl_SsvX38HtbD8-24" value="&lt;div style=&quot;&quot;&gt;FavoriteViewModel&lt;/div&gt;" style="ellipse;whiteSpace=wrap;html=1;fontFamily=Times New Roman;fontSize=20;fillColor=#dae8fc;strokeColor=#6c8ebf;labelBackgroundColor=none;fontColor=default;verticalAlign=middle;" parent="1" vertex="1">
          <mxGeometry x="1890" y="227.5" width="190" height="95" as="geometry" />
        </mxCell>
        <mxCell id="iOkIdsyl_SsvX38HtbD8-25" value="&lt;div style=&quot;&quot;&gt;FavoriteFragment&lt;/div&gt;" style="ellipse;whiteSpace=wrap;html=1;fontFamily=Times New Roman;fontSize=20;fillColor=#dae8fc;strokeColor=#6c8ebf;labelBackgroundColor=none;fontColor=default;verticalAlign=middle;" parent="1" vertex="1">
          <mxGeometry x="1710" y="232.5" width="170" height="80" as="geometry" />
        </mxCell>
        <mxCell id="5MEwGUwgPGxXNnlHgzlO-11" style="edgeStyle=orthogonalEdgeStyle;rounded=0;orthogonalLoop=1;jettySize=auto;html=1;" edge="1" parent="1" source="iOkIdsyl_SsvX38HtbD8-27" target="iOkIdsyl_SsvX38HtbD8-19">
          <mxGeometry relative="1" as="geometry" />
        </mxCell>
        <mxCell id="5MEwGUwgPGxXNnlHgzlO-12" style="edgeStyle=orthogonalEdgeStyle;rounded=0;orthogonalLoop=1;jettySize=auto;html=1;entryX=0.25;entryY=0;entryDx=0;entryDy=0;" edge="1" parent="1" source="iOkIdsyl_SsvX38HtbD8-27" target="iOkIdsyl_SsvX38HtbD8-26">
          <mxGeometry relative="1" as="geometry">
            <Array as="points">
              <mxPoint x="1833" y="145" />
            </Array>
          </mxGeometry>
        </mxCell>
        <mxCell id="5MEwGUwgPGxXNnlHgzlO-13" style="edgeStyle=orthogonalEdgeStyle;rounded=0;orthogonalLoop=1;jettySize=auto;html=1;exitX=1;exitY=0.25;exitDx=0;exitDy=0;entryX=0.25;entryY=0;entryDx=0;entryDy=0;" edge="1" parent="1" source="iOkIdsyl_SsvX38HtbD8-27" target="5MEwGUwgPGxXNnlHgzlO-3">
          <mxGeometry relative="1" as="geometry" />
        </mxCell>
        <mxCell id="iOkIdsyl_SsvX38HtbD8-27" value="ImageLoader" style="rounded=1;whiteSpace=wrap;html=1;fontFamily=Times New Roman;fontSize=20;verticalAlign=top;" parent="1" vertex="1">
          <mxGeometry x="177" y="75" width="650" height="210" as="geometry" />
        </mxCell>
        <mxCell id="iOkIdsyl_SsvX38HtbD8-28" value="&lt;div style=&quot;&quot;&gt;ImageLoader&lt;/div&gt;" style="ellipse;whiteSpace=wrap;html=1;fontFamily=Times New Roman;fontSize=20;fillColor=#d5e8d4;strokeColor=#82b366;labelBackgroundColor=none;verticalAlign=middle;" parent="1" vertex="1">
          <mxGeometry x="278" y="140" width="190" height="80" as="geometry" />
        </mxCell>
        <mxCell id="iOkIdsyl_SsvX38HtbD8-30" style="edgeStyle=orthogonalEdgeStyle;rounded=0;orthogonalLoop=1;jettySize=auto;html=1;fontFamily=Times New Roman;fontSize=20;fontColor=default;" parent="1" source="iOkIdsyl_SsvX38HtbD8-29" target="iOkIdsyl_SsvX38HtbD8-28" edge="1">
          <mxGeometry relative="1" as="geometry" />
        </mxCell>
        <mxCell id="iOkIdsyl_SsvX38HtbD8-29" value="&lt;div style=&quot;&quot;&gt;GlideImageLoader&lt;/div&gt;" style="ellipse;whiteSpace=wrap;html=1;fontFamily=Times New Roman;fontSize=20;fillColor=#dae8fc;strokeColor=#6c8ebf;labelBackgroundColor=none;fontColor=default;verticalAlign=middle;" parent="1" vertex="1">
          <mxGeometry x="577" y="140" width="190" height="80" as="geometry" />
        </mxCell>
        <mxCell id="iOkIdsyl_SsvX38HtbD8-33" value="MainActivity" style="rounded=1;whiteSpace=wrap;html=1;fontFamily=Times New Roman;fontSize=20;verticalAlign=top;" parent="1" vertex="1">
          <mxGeometry x="2162" y="-400" width="398" height="210" as="geometry" />
        </mxCell>
        <mxCell id="iOkIdsyl_SsvX38HtbD8-34" value="&lt;div style=&quot;&quot;&gt;MainActivity&lt;/div&gt;" style="ellipse;whiteSpace=wrap;html=1;fontFamily=Times New Roman;fontSize=20;fillColor=#dae8fc;strokeColor=#6c8ebf;labelBackgroundColor=none;fontColor=default;verticalAlign=middle;" parent="1" vertex="1">
          <mxGeometry x="2292" y="-325" width="190" height="80" as="geometry" />
        </mxCell>
        <mxCell id="iOkIdsyl_SsvX38HtbD8-60" value="&lt;div&gt;TimerViewModel&lt;/div&gt;" style="ellipse;whiteSpace=wrap;html=1;fontFamily=Times New Roman;fontSize=20;fillColor=#dae8fc;strokeColor=#6c8ebf;labelBackgroundColor=none;fontColor=default;verticalAlign=middle;" parent="1" vertex="1">
          <mxGeometry x="2920" y="385" width="190" height="80" as="geometry" />
        </mxCell>
        <mxCell id="iOkIdsyl_SsvX38HtbD8-62" value="&lt;div style=&quot;&quot;&gt;TimerFragment&lt;/div&gt;" style="ellipse;whiteSpace=wrap;html=1;fontFamily=Times New Roman;fontSize=20;fillColor=#dae8fc;strokeColor=#6c8ebf;labelBackgroundColor=none;fontColor=default;verticalAlign=middle;" parent="1" vertex="1">
          <mxGeometry x="3160" y="385" width="190" height="80" as="geometry" />
        </mxCell>
        <mxCell id="iOkIdsyl_SsvX38HtbD8-69" value="&lt;div style=&quot;&quot;&gt;DomainRepository&lt;/div&gt;" style="ellipse;whiteSpace=wrap;html=1;fontFamily=Times New Roman;fontSize=20;fillColor=#d5e8d4;strokeColor=#82b366;labelBackgroundColor=none;verticalAlign=middle;fontColor=default;" parent="1" vertex="1">
          <mxGeometry x="1500" y="950" width="190" height="80" as="geometry" />
        </mxCell>
        <mxCell id="iOkIdsyl_SsvX38HtbD8-78" style="edgeStyle=orthogonalEdgeStyle;rounded=0;orthogonalLoop=1;jettySize=auto;html=1;fontFamily=Times New Roman;fontSize=20;fontColor=default;" parent="1" source="iOkIdsyl_SsvX38HtbD8-70" target="iOkIdsyl_SsvX38HtbD8-19" edge="1">
          <mxGeometry relative="1" as="geometry" />
        </mxCell>
        <mxCell id="iOkIdsyl_SsvX38HtbD8-79" style="edgeStyle=orthogonalEdgeStyle;rounded=0;orthogonalLoop=1;jettySize=auto;html=1;fontFamily=Times New Roman;fontSize=20;fontColor=default;" parent="1" source="iOkIdsyl_SsvX38HtbD8-70" target="iOkIdsyl_SsvX38HtbD8-26" edge="1">
          <mxGeometry relative="1" as="geometry" />
        </mxCell>
        <mxCell id="iOkIdsyl_SsvX38HtbD8-89" style="edgeStyle=orthogonalEdgeStyle;rounded=0;orthogonalLoop=1;jettySize=auto;html=1;fontFamily=Times New Roman;fontSize=20;fontColor=default;startArrow=classic;startFill=1;" parent="1" source="iOkIdsyl_SsvX38HtbD8-70" target="iOkIdsyl_SsvX38HtbD8-69" edge="1">
          <mxGeometry relative="1" as="geometry" />
        </mxCell>
        <mxCell id="iOkIdsyl_SsvX38HtbD8-70" value="&lt;div style=&quot;&quot;&gt;DeleteFavoriteUseCase&lt;/div&gt;" style="ellipse;whiteSpace=wrap;html=1;fontFamily=Times New Roman;fontSize=20;fillColor=#dae8fc;strokeColor=#6c8ebf;labelBackgroundColor=none;fontColor=default;" parent="1" vertex="1">
          <mxGeometry x="1640" y="790" width="190" height="95" as="geometry" />
        </mxCell>
        <mxCell id="iOkIdsyl_SsvX38HtbD8-76" style="edgeStyle=orthogonalEdgeStyle;rounded=0;orthogonalLoop=1;jettySize=auto;html=1;fontFamily=Times New Roman;fontSize=20;fontColor=default;" parent="1" source="iOkIdsyl_SsvX38HtbD8-71" target="iOkIdsyl_SsvX38HtbD8-19" edge="1">
          <mxGeometry relative="1" as="geometry" />
        </mxCell>
        <mxCell id="iOkIdsyl_SsvX38HtbD8-88" style="edgeStyle=orthogonalEdgeStyle;rounded=0;orthogonalLoop=1;jettySize=auto;html=1;entryX=0.5;entryY=0;entryDx=0;entryDy=0;fontFamily=Times New Roman;fontSize=20;fontColor=default;startArrow=classic;startFill=1;" parent="1" source="iOkIdsyl_SsvX38HtbD8-71" target="iOkIdsyl_SsvX38HtbD8-69" edge="1">
          <mxGeometry relative="1" as="geometry" />
        </mxCell>
        <mxCell id="iOkIdsyl_SsvX38HtbD8-71" value="&lt;div style=&quot;&quot;&gt;SaveFavoriteUseCase&lt;/div&gt;" style="ellipse;whiteSpace=wrap;html=1;fontFamily=Times New Roman;fontSize=20;fillColor=#dae8fc;strokeColor=#6c8ebf;labelBackgroundColor=none;fontColor=default;" parent="1" vertex="1">
          <mxGeometry x="1350" y="790" width="190" height="95" as="geometry" />
        </mxCell>
        <mxCell id="iOkIdsyl_SsvX38HtbD8-75" style="edgeStyle=orthogonalEdgeStyle;rounded=0;orthogonalLoop=1;jettySize=auto;html=1;fontFamily=Times New Roman;fontSize=20;fontColor=default;" parent="1" source="iOkIdsyl_SsvX38HtbD8-72" target="iOkIdsyl_SsvX38HtbD8-19" edge="1">
          <mxGeometry relative="1" as="geometry" />
        </mxCell>
        <mxCell id="iOkIdsyl_SsvX38HtbD8-87" style="edgeStyle=orthogonalEdgeStyle;rounded=0;orthogonalLoop=1;jettySize=auto;html=1;fontFamily=Times New Roman;fontSize=20;fontColor=default;startArrow=classic;startFill=1;" parent="1" source="iOkIdsyl_SsvX38HtbD8-72" target="iOkIdsyl_SsvX38HtbD8-69" edge="1">
          <mxGeometry relative="1" as="geometry">
            <Array as="points">
              <mxPoint x="1205" y="920" />
              <mxPoint x="1595" y="920" />
            </Array>
          </mxGeometry>
        </mxCell>
        <mxCell id="iOkIdsyl_SsvX38HtbD8-72" value="&lt;div style=&quot;&quot;&gt;GetTranslateUseCase&lt;/div&gt;" style="ellipse;whiteSpace=wrap;html=1;fontFamily=Times New Roman;fontSize=20;fillColor=#dae8fc;strokeColor=#6c8ebf;labelBackgroundColor=none;fontColor=default;" parent="1" vertex="1">
          <mxGeometry x="1110" y="790" width="190" height="87.5" as="geometry" />
        </mxCell>
        <mxCell id="iOkIdsyl_SsvX38HtbD8-80" style="edgeStyle=orthogonalEdgeStyle;rounded=0;orthogonalLoop=1;jettySize=auto;html=1;entryX=0.5;entryY=1;entryDx=0;entryDy=0;fontFamily=Times New Roman;fontSize=20;fontColor=default;" parent="1" source="iOkIdsyl_SsvX38HtbD8-73" target="iOkIdsyl_SsvX38HtbD8-26" edge="1">
          <mxGeometry relative="1" as="geometry" />
        </mxCell>
        <mxCell id="iOkIdsyl_SsvX38HtbD8-90" style="edgeStyle=orthogonalEdgeStyle;rounded=0;orthogonalLoop=1;jettySize=auto;html=1;fontFamily=Times New Roman;fontSize=20;fontColor=default;startArrow=classic;startFill=1;" parent="1" source="iOkIdsyl_SsvX38HtbD8-73" target="iOkIdsyl_SsvX38HtbD8-69" edge="1">
          <mxGeometry relative="1" as="geometry">
            <Array as="points">
              <mxPoint x="2015" y="920" />
              <mxPoint x="1595" y="920" />
            </Array>
          </mxGeometry>
        </mxCell>
        <mxCell id="iOkIdsyl_SsvX38HtbD8-73" value="&lt;div style=&quot;&quot;&gt;GetAllFavoritesUseCase&lt;/div&gt;" style="ellipse;whiteSpace=wrap;html=1;fontFamily=Times New Roman;fontSize=20;fillColor=#dae8fc;strokeColor=#6c8ebf;labelBackgroundColor=none;fontColor=default;" parent="1" vertex="1">
          <mxGeometry x="1920" y="790" width="190" height="95" as="geometry" />
        </mxCell>
        <mxCell id="iOkIdsyl_SsvX38HtbD8-81" value="Model" style="rounded=1;whiteSpace=wrap;html=1;fontFamily=Times New Roman;fontSize=20;verticalAlign=top;" parent="1" vertex="1">
          <mxGeometry x="413.5" y="728.75" width="650" height="291.25" as="geometry" />
        </mxCell>
        <mxCell id="iOkIdsyl_SsvX38HtbD8-82" value="&lt;div style=&quot;&quot;&gt;DomainMeaning&lt;/div&gt;" style="ellipse;whiteSpace=wrap;html=1;fontFamily=Times New Roman;fontSize=20;fillColor=#e1d5e7;strokeColor=#9673a6;labelBackgroundColor=none;" parent="1" vertex="1">
          <mxGeometry x="470" y="770" width="190" height="87.5" as="geometry" />
        </mxCell>
        <mxCell id="iOkIdsyl_SsvX38HtbD8-83" value="&lt;div style=&quot;&quot;&gt;DomainModel&lt;/div&gt;" style="ellipse;whiteSpace=wrap;html=1;fontFamily=Times New Roman;fontSize=20;fillColor=#e1d5e7;strokeColor=#9673a6;labelBackgroundColor=none;" parent="1" vertex="1">
          <mxGeometry x="800" y="770" width="190" height="87.5" as="geometry" />
        </mxCell>
        <mxCell id="iOkIdsyl_SsvX38HtbD8-84" value="&lt;div style=&quot;&quot;&gt;FavoriteModel&lt;/div&gt;" style="ellipse;whiteSpace=wrap;html=1;fontFamily=Times New Roman;fontSize=20;fillColor=#e1d5e7;strokeColor=#9673a6;labelBackgroundColor=none;" parent="1" vertex="1">
          <mxGeometry x="800" y="890" width="190" height="87.5" as="geometry" />
        </mxCell>
        <mxCell id="iOkIdsyl_SsvX38HtbD8-86" style="edgeStyle=orthogonalEdgeStyle;rounded=0;orthogonalLoop=1;jettySize=auto;html=1;fontFamily=Times New Roman;fontSize=20;fontColor=default;" parent="1" source="iOkIdsyl_SsvX38HtbD8-85" target="iOkIdsyl_SsvX38HtbD8-82" edge="1">
          <mxGeometry relative="1" as="geometry" />
        </mxCell>
        <mxCell id="iOkIdsyl_SsvX38HtbD8-85" value="&lt;div style=&quot;&quot;&gt;DomainTranslation&lt;/div&gt;" style="ellipse;whiteSpace=wrap;html=1;fontFamily=Times New Roman;fontSize=20;fillColor=#e1d5e7;strokeColor=#9673a6;labelBackgroundColor=none;" parent="1" vertex="1">
          <mxGeometry x="470" y="890" width="190" height="87.5" as="geometry" />
        </mxCell>
        <mxCell id="iOkIdsyl_SsvX38HtbD8-91" value="Data" style="rounded=0;whiteSpace=wrap;html=1;fontFamily=Times New Roman;fontStyle=1;fontSize=20;verticalAlign=top;fillColor=#E6E6E6;" parent="1" vertex="1">
          <mxGeometry x="400" y="1153.25" width="2940" height="561" as="geometry" />
        </mxCell>
        <mxCell id="iOkIdsyl_SsvX38HtbD8-93" value="Retrofit" style="rounded=1;whiteSpace=wrap;html=1;fontFamily=Times New Roman;fontSize=20;verticalAlign=top;" parent="1" vertex="1">
          <mxGeometry x="470" y="1198.37" width="930" height="471.63" as="geometry" />
        </mxCell>
        <mxCell id="iOkIdsyl_SsvX38HtbD8-102" style="edgeStyle=orthogonalEdgeStyle;rounded=0;orthogonalLoop=1;jettySize=auto;html=1;entryX=0;entryY=0.5;entryDx=0;entryDy=0;fontFamily=Times New Roman;fontSize=20;fontColor=default;startArrow=none;startFill=0;" parent="1" source="iOkIdsyl_SsvX38HtbD8-94" target="iOkIdsyl_SsvX38HtbD8-95" edge="1">
          <mxGeometry relative="1" as="geometry" />
        </mxCell>
        <mxCell id="iOkIdsyl_SsvX38HtbD8-94" value="&lt;div style=&quot;&quot;&gt;DomainRepository&lt;/div&gt;" style="ellipse;whiteSpace=wrap;html=1;fontFamily=Times New Roman;fontSize=20;fillColor=#d5e8d4;strokeColor=#82b366;labelBackgroundColor=none;verticalAlign=middle;fontColor=default;" parent="1" vertex="1">
          <mxGeometry x="1060" y="1280" width="190" height="80" as="geometry" />
        </mxCell>
        <mxCell id="iOkIdsyl_SsvX38HtbD8-95" value="&lt;div style=&quot;&quot;&gt;GetTranslateUseCase&lt;/div&gt;" style="ellipse;whiteSpace=wrap;html=1;fontFamily=Times New Roman;fontSize=20;fillColor=#dae8fc;strokeColor=#6c8ebf;labelBackgroundColor=none;fontColor=default;" parent="1" vertex="1">
          <mxGeometry x="1180" y="1430" width="190" height="87.5" as="geometry" />
        </mxCell>
        <mxCell id="iOkIdsyl_SsvX38HtbD8-103" style="edgeStyle=orthogonalEdgeStyle;rounded=0;orthogonalLoop=1;jettySize=auto;html=1;fontFamily=Times New Roman;fontSize=20;fontColor=default;startArrow=none;startFill=0;" parent="1" source="iOkIdsyl_SsvX38HtbD8-96" target="iOkIdsyl_SsvX38HtbD8-94" edge="1">
          <mxGeometry relative="1" as="geometry" />
        </mxCell>
        <mxCell id="iOkIdsyl_SsvX38HtbD8-96" value="Model" style="rounded=1;whiteSpace=wrap;html=1;fontFamily=Times New Roman;fontSize=20;verticalAlign=top;" parent="1" vertex="1">
          <mxGeometry x="510" y="1230" width="430" height="370" as="geometry" />
        </mxCell>
        <mxCell id="iOkIdsyl_SsvX38HtbD8-97" value="&lt;div style=&quot;&quot;&gt;RetrofitTranslateDto&lt;/div&gt;" style="ellipse;whiteSpace=wrap;html=1;fontFamily=Times New Roman;fontSize=20;fillColor=#e1d5e7;strokeColor=#9673a6;labelBackgroundColor=none;fontColor=default;" parent="1" vertex="1">
          <mxGeometry x="710" y="1290" width="190" height="87.5" as="geometry" />
        </mxCell>
        <mxCell id="iOkIdsyl_SsvX38HtbD8-100" style="edgeStyle=orthogonalEdgeStyle;rounded=0;orthogonalLoop=1;jettySize=auto;html=1;entryX=1;entryY=0.5;entryDx=0;entryDy=0;fontFamily=Times New Roman;fontSize=20;fontColor=default;startArrow=none;startFill=0;" parent="1" source="iOkIdsyl_SsvX38HtbD8-98" target="iOkIdsyl_SsvX38HtbD8-99" edge="1">
          <mxGeometry relative="1" as="geometry" />
        </mxCell>
        <mxCell id="iOkIdsyl_SsvX38HtbD8-98" value="&lt;div style=&quot;&quot;&gt;Translation&lt;/div&gt;" style="ellipse;whiteSpace=wrap;html=1;fontFamily=Times New Roman;fontSize=20;fillColor=#e1d5e7;strokeColor=#9673a6;labelBackgroundColor=none;fontColor=default;" parent="1" vertex="1">
          <mxGeometry x="700" y="1490" width="190" height="87.5" as="geometry" />
        </mxCell>
        <mxCell id="iOkIdsyl_SsvX38HtbD8-101" style="edgeStyle=orthogonalEdgeStyle;rounded=0;orthogonalLoop=1;jettySize=auto;html=1;entryX=0;entryY=0.5;entryDx=0;entryDy=0;fontFamily=Times New Roman;fontSize=20;fontColor=default;startArrow=none;startFill=0;" parent="1" source="iOkIdsyl_SsvX38HtbD8-99" target="iOkIdsyl_SsvX38HtbD8-97" edge="1">
          <mxGeometry relative="1" as="geometry" />
        </mxCell>
        <mxCell id="iOkIdsyl_SsvX38HtbD8-99" value="&lt;div style=&quot;&quot;&gt;Meaning&lt;/div&gt;" style="ellipse;whiteSpace=wrap;html=1;fontFamily=Times New Roman;fontSize=20;fillColor=#e1d5e7;strokeColor=#9673a6;labelBackgroundColor=none;fontColor=default;" parent="1" vertex="1">
          <mxGeometry x="545" y="1390" width="190" height="87.5" as="geometry" />
        </mxCell>
        <mxCell id="iOkIdsyl_SsvX38HtbD8-104" value="Repository" style="rounded=1;whiteSpace=wrap;html=1;fontFamily=Times New Roman;fontSize=20;verticalAlign=top;" parent="1" vertex="1">
          <mxGeometry x="1440" y="1197.94" width="840" height="471.63" as="geometry" />
        </mxCell>
        <mxCell id="iOkIdsyl_SsvX38HtbD8-111" style="edgeStyle=orthogonalEdgeStyle;rounded=0;orthogonalLoop=1;jettySize=auto;html=1;entryX=0.5;entryY=1;entryDx=0;entryDy=0;fontFamily=Times New Roman;fontSize=20;fontColor=default;startArrow=none;startFill=0;" parent="1" source="iOkIdsyl_SsvX38HtbD8-105" target="iOkIdsyl_SsvX38HtbD8-69" edge="1">
          <mxGeometry relative="1" as="geometry">
            <Array as="points">
              <mxPoint x="1875" y="1120" />
              <mxPoint x="1595" y="1120" />
            </Array>
          </mxGeometry>
        </mxCell>
        <mxCell id="iOkIdsyl_SsvX38HtbD8-105" value="&lt;div style=&quot;&quot;&gt;GetTranslateUseCase&lt;/div&gt;" style="ellipse;whiteSpace=wrap;html=1;fontFamily=Times New Roman;fontSize=20;fillColor=#dae8fc;strokeColor=#6c8ebf;labelBackgroundColor=none;fontColor=default;" parent="1" vertex="1">
          <mxGeometry x="1780" y="1261.25" width="190" height="87.5" as="geometry" />
        </mxCell>
        <mxCell id="iOkIdsyl_SsvX38HtbD8-112" style="edgeStyle=orthogonalEdgeStyle;rounded=0;orthogonalLoop=1;jettySize=auto;html=1;entryX=0.5;entryY=1;entryDx=0;entryDy=0;fontFamily=Times New Roman;fontSize=20;fontColor=default;startArrow=classic;startFill=1;" parent="1" source="iOkIdsyl_SsvX38HtbD8-106" target="iOkIdsyl_SsvX38HtbD8-105" edge="1">
          <mxGeometry relative="1" as="geometry" />
        </mxCell>
        <mxCell id="iOkIdsyl_SsvX38HtbD8-106" value="&lt;div style=&quot;&quot;&gt;NetworkRepository&lt;/div&gt;" style="ellipse;whiteSpace=wrap;html=1;fontFamily=Times New Roman;fontSize=20;fillColor=#d5e8d4;strokeColor=#82b366;labelBackgroundColor=none;verticalAlign=middle;fontColor=default;" parent="1" vertex="1">
          <mxGeometry x="1540" y="1433.75" width="190" height="80" as="geometry" />
        </mxCell>
        <mxCell id="iOkIdsyl_SsvX38HtbD8-113" style="edgeStyle=orthogonalEdgeStyle;rounded=0;orthogonalLoop=1;jettySize=auto;html=1;entryX=0.5;entryY=1;entryDx=0;entryDy=0;fontFamily=Times New Roman;fontSize=20;fontColor=default;startArrow=classic;startFill=1;" parent="1" source="iOkIdsyl_SsvX38HtbD8-107" target="iOkIdsyl_SsvX38HtbD8-105" edge="1">
          <mxGeometry relative="1" as="geometry" />
        </mxCell>
        <mxCell id="iOkIdsyl_SsvX38HtbD8-107" value="&lt;div style=&quot;&quot;&gt;DomainRepository&lt;/div&gt;" style="ellipse;whiteSpace=wrap;html=1;fontFamily=Times New Roman;fontSize=20;fillColor=#d5e8d4;strokeColor=#82b366;labelBackgroundColor=none;verticalAlign=middle;fontColor=default;" parent="1" vertex="1">
          <mxGeometry x="2050" y="1433.75" width="190" height="80" as="geometry" />
        </mxCell>
        <mxCell id="iOkIdsyl_SsvX38HtbD8-109" style="edgeStyle=orthogonalEdgeStyle;rounded=0;orthogonalLoop=1;jettySize=auto;html=1;fontFamily=Times New Roman;fontSize=20;fontColor=default;startArrow=none;startFill=0;" parent="1" source="iOkIdsyl_SsvX38HtbD8-108" target="iOkIdsyl_SsvX38HtbD8-105" edge="1">
          <mxGeometry relative="1" as="geometry" />
        </mxCell>
        <mxCell id="iOkIdsyl_SsvX38HtbD8-108" value="&lt;div style=&quot;font-size: 20px&quot;&gt;&lt;span style=&quot;font-style: italic ; font-size: 20px&quot;&gt;CustomMapper&lt;/span&gt;&lt;/div&gt;" style="shape=card;whiteSpace=wrap;html=1;fontFamily=Times New Roman;fontSize=20;verticalAlign=middle;labelBackgroundColor=none;fontColor=default;fillColor=#FFE6CC;" parent="1" vertex="1">
          <mxGeometry x="1494" y="1250" width="160" height="110" as="geometry" />
        </mxCell>
        <mxCell id="iOkIdsyl_SsvX38HtbD8-110" style="edgeStyle=orthogonalEdgeStyle;rounded=0;orthogonalLoop=1;jettySize=auto;html=1;fontFamily=Times New Roman;fontSize=20;fontColor=default;startArrow=none;startFill=0;" parent="1" source="iOkIdsyl_SsvX38HtbD8-95" target="iOkIdsyl_SsvX38HtbD8-106" edge="1">
          <mxGeometry relative="1" as="geometry" />
        </mxCell>
        <mxCell id="iOkIdsyl_SsvX38HtbD8-115" value="Database" style="rounded=1;whiteSpace=wrap;html=1;fontFamily=Times New Roman;fontSize=20;verticalAlign=top;" parent="1" vertex="1">
          <mxGeometry x="2360" y="1207.94" width="900" height="471.63" as="geometry" />
        </mxCell>
        <mxCell id="iOkIdsyl_SsvX38HtbD8-122" style="edgeStyle=orthogonalEdgeStyle;rounded=0;orthogonalLoop=1;jettySize=auto;html=1;fontFamily=Times New Roman;fontSize=20;fontColor=default;startArrow=none;startFill=0;" parent="1" source="iOkIdsyl_SsvX38HtbD8-116" target="iOkIdsyl_SsvX38HtbD8-117" edge="1">
          <mxGeometry relative="1" as="geometry" />
        </mxCell>
        <mxCell id="iOkIdsyl_SsvX38HtbD8-116" value="&lt;div style=&quot;&quot;&gt;RoomDao&lt;/div&gt;" style="ellipse;whiteSpace=wrap;html=1;fontFamily=Times New Roman;fontSize=20;fillColor=#d5e8d4;strokeColor=#82b366;labelBackgroundColor=none;fontColor=default;" parent="1" vertex="1">
          <mxGeometry x="2705" y="1272.5" width="190" height="87.5" as="geometry" />
        </mxCell>
        <mxCell id="iOkIdsyl_SsvX38HtbD8-121" style="edgeStyle=orthogonalEdgeStyle;rounded=0;orthogonalLoop=1;jettySize=auto;html=1;fontFamily=Times New Roman;fontSize=20;fontColor=default;startArrow=none;startFill=0;" parent="1" source="iOkIdsyl_SsvX38HtbD8-117" target="iOkIdsyl_SsvX38HtbD8-118" edge="1">
          <mxGeometry relative="1" as="geometry" />
        </mxCell>
        <mxCell id="iOkIdsyl_SsvX38HtbD8-117" value="&lt;div style=&quot;&quot;&gt;AppDatabase&lt;/div&gt;" style="ellipse;whiteSpace=wrap;html=1;fontFamily=Times New Roman;fontSize=20;fillColor=#1ba1e2;strokeColor=#006EAF;labelBackgroundColor=none;fontColor=default;" parent="1" vertex="1">
          <mxGeometry x="2705" y="1512.5" width="190" height="87.5" as="geometry" />
        </mxCell>
        <mxCell id="iOkIdsyl_SsvX38HtbD8-120" style="edgeStyle=orthogonalEdgeStyle;rounded=0;orthogonalLoop=1;jettySize=auto;html=1;entryX=1;entryY=0.5;entryDx=0;entryDy=0;fontFamily=Times New Roman;fontSize=20;fontColor=default;startArrow=none;startFill=0;" parent="1" source="iOkIdsyl_SsvX38HtbD8-118" target="iOkIdsyl_SsvX38HtbD8-107" edge="1">
          <mxGeometry relative="1" as="geometry" />
        </mxCell>
        <mxCell id="iOkIdsyl_SsvX38HtbD8-118" value="&lt;div style=&quot;&quot;&gt;DatabaseRepositoryImpl&lt;/div&gt;" style="ellipse;whiteSpace=wrap;html=1;fontFamily=Times New Roman;fontSize=20;fillColor=#dae8fc;strokeColor=#6c8ebf;labelBackgroundColor=none;fontColor=default;" parent="1" vertex="1">
          <mxGeometry x="2440" y="1430" width="190" height="87.5" as="geometry" />
        </mxCell>
        <mxCell id="iOkIdsyl_SsvX38HtbD8-124" style="edgeStyle=orthogonalEdgeStyle;rounded=0;orthogonalLoop=1;jettySize=auto;html=1;entryX=1;entryY=0.5;entryDx=0;entryDy=0;fontFamily=Times New Roman;fontSize=20;fontColor=default;startArrow=none;startFill=0;" parent="1" source="iOkIdsyl_SsvX38HtbD8-119" target="iOkIdsyl_SsvX38HtbD8-116" edge="1">
          <mxGeometry relative="1" as="geometry" />
        </mxCell>
        <mxCell id="iOkIdsyl_SsvX38HtbD8-119" value="&lt;div style=&quot;&quot;&gt;RoomModel&lt;/div&gt;" style="ellipse;whiteSpace=wrap;html=1;fontFamily=Times New Roman;fontSize=20;fillColor=#e1d5e7;strokeColor=#9673a6;labelBackgroundColor=none;fontColor=default;" parent="1" vertex="1">
          <mxGeometry x="2950" y="1420" width="190" height="87.5" as="geometry" />
        </mxCell>
        <mxCell id="5MEwGUwgPGxXNnlHgzlO-2" style="edgeStyle=orthogonalEdgeStyle;rounded=0;orthogonalLoop=1;jettySize=auto;html=1;entryX=0.5;entryY=1;entryDx=0;entryDy=0;" edge="1" parent="1" source="5MEwGUwgPGxXNnlHgzlO-1" target="iOkIdsyl_SsvX38HtbD8-2">
          <mxGeometry relative="1" as="geometry" />
        </mxCell>
        <mxCell id="5MEwGUwgPGxXNnlHgzlO-1" value="&lt;div&gt;MyTimerUseCase&lt;/div&gt;" style="ellipse;whiteSpace=wrap;html=1;fontFamily=Times New Roman;fontSize=20;fillColor=#dae8fc;strokeColor=#6c8ebf;labelBackgroundColor=none;fontColor=default;" vertex="1" parent="1">
          <mxGeometry x="2140" y="790" width="190" height="95" as="geometry" />
        </mxCell>
        <mxCell id="5MEwGUwgPGxXNnlHgzlO-3" value="DetailsFragment" style="rounded=1;whiteSpace=wrap;html=1;fontFamily=Times New Roman;fontSize=20;verticalAlign=top;" vertex="1" parent="1">
          <mxGeometry x="2350" y="170" width="420" height="190" as="geometry" />
        </mxCell>
        <mxCell id="5MEwGUwgPGxXNnlHgzlO-5" value="&lt;div&gt;DetailsModel&lt;/div&gt;" style="ellipse;whiteSpace=wrap;html=1;fontFamily=Times New Roman;fontSize=20;fillColor=#dae8fc;strokeColor=#6c8ebf;labelBackgroundColor=none;fontColor=default;verticalAlign=middle;" vertex="1" parent="1">
          <mxGeometry x="2580" y="242.5" width="170" height="80" as="geometry" />
        </mxCell>
        <mxCell id="5MEwGUwgPGxXNnlHgzlO-6" value="&lt;div&gt;DetailsFagment&lt;/div&gt;" style="ellipse;whiteSpace=wrap;html=1;fontFamily=Times New Roman;fontSize=20;fillColor=#dae8fc;strokeColor=#6c8ebf;labelBackgroundColor=none;fontColor=default;verticalAlign=middle;" vertex="1" parent="1">
          <mxGeometry x="2390" y="240" width="170" height="80" as="geometry" />
        </mxCell>
      </root>
    </mxGraphModel>
  </diagram>
</mxfile>
